<?xml version="1.0" encoding="utf-8"?>
<!-- Generator: Adobe Illustrator 28.3.0, SVG Export Plug-In . SVG Version: 6.00 Build 0)  -->
<svg version="1.1" id="TEXTS" xmlns="http://www.w3.org/2000/svg" xmlns:xlink="http://www.w3.org/1999/xlink" x="0px" y="0px"
	 viewBox="0 0 334.62 110.34" style="enable-background:new 0 0 334.62 110.34;" xml:space="preserve">
<style type="text/css">
	.st0{fill:#FFFFFF;}
</style>
<g>
	<path class="st0" d="M52.86,78.56c7.19,0,13.04-5.85,13.04-13.04V53.86c0-22.03,17.92-39.95,39.95-39.95c1.3,0,2.35-1.05,2.35-2.35
		c0-1.3-1.05-2.35-2.35-2.35c-24.63,0-44.66,20.03-44.66,44.66v11.66c0,4.59-3.74,8.33-8.33,8.33c-3.99,0-7.32-2.82-8.14-6.56
		c4.67-1.53,8.05-5.92,8.05-11.09c0-3.33-1.41-6.43-3.79-8.61c2.32-2.88,3.47-6.59,3.31-10.93C51.84,24.89,41.97,10.33,27.71,0.42
		c-0.01-0.01-0.03-0.01-0.04-0.02c-0.07-0.05-0.15-0.09-0.23-0.13c-0.06-0.03-0.12-0.07-0.19-0.09c-0.07-0.03-0.14-0.05-0.21-0.07
		c-0.08-0.02-0.15-0.05-0.23-0.06c-0.07-0.01-0.14-0.02-0.21-0.02C26.53,0.01,26.45,0,26.37,0c-0.08,0-0.16,0.01-0.23,0.02
		c-0.07,0.01-0.14,0.01-0.21,0.02c-0.08,0.01-0.15,0.04-0.22,0.06c-0.07,0.02-0.15,0.04-0.22,0.07c-0.06,0.03-0.12,0.06-0.18,0.09
		c-0.08,0.04-0.16,0.08-0.24,0.13c-0.01,0.01-0.03,0.01-0.04,0.02C10.77,10.33,0.9,24.89,0.46,36.66C0.29,41,1.44,44.71,3.76,47.59
		c-2.38,2.18-3.79,5.27-3.79,8.61c0,5.26,3.49,9.71,8.27,11.17c0.97,23.77,20.61,42.82,44.61,42.82c24.63,0,44.66-20.03,44.66-44.66
		V53.86c0-4.59,3.74-8.33,8.33-8.33c1.3,0,2.35-1.05,2.35-2.35c0-1.3-1.05-2.35-2.35-2.35c-7.19,0-13.04,5.85-13.04,13.04v11.66
		c0,22.03-17.92,39.95-39.95,39.95c-21.27,0-38.7-16.7-39.88-37.68c1.11-0.13,2.17-0.41,3.17-0.82c0.77,19.6,16.94,35.3,36.72,35.3
		c20.27,0,36.75-16.49,36.75-36.75V53.86c0-8.95,7.28-16.24,16.24-16.24c1.3,0,2.35-1.05,2.35-2.35c0-1.3-1.05-2.35-2.35-2.35
		c-11.55,0-20.94,9.39-20.94,20.94v11.66c0,17.67-14.38,32.05-32.05,32.05c-17.67,0-32.05-14.38-32.05-32.05v-2.11
		c1.57-1.99,2.51-4.49,2.51-7.21c0-1.3-1.05-2.35-2.35-2.35c-1.3,0-2.35,1.05-2.35,2.35c0,1.79-0.68,3.42-1.79,4.65
		c-0.04,0.03-0.07,0.07-0.1,0.11c-1.27,1.36-3.07,2.21-5.08,2.21c-3.84,0-6.97-3.13-6.97-6.97c0-2.62,1.44-4.99,3.77-6.19
		c0.07-0.03,0.12-0.08,0.18-0.12c0.07-0.04,0.14-0.08,0.2-0.13c0.13-0.1,0.25-0.22,0.35-0.34c0,0,0.01-0.01,0.01-0.01
		c0.04-0.06,0.08-0.12,0.11-0.17c0.04-0.07,0.09-0.13,0.13-0.2c0.04-0.08,0.07-0.17,0.11-0.25c0.02-0.06,0.05-0.11,0.07-0.17
		c0.03-0.09,0.04-0.17,0.06-0.26c0.01-0.06,0.03-0.12,0.03-0.19c0.01-0.08,0-0.16,0-0.24c0-0.07,0-0.14,0-0.21
		c-0.01-0.08-0.03-0.16-0.04-0.25c-0.01-0.07-0.02-0.13-0.04-0.2c-0.03-0.11-0.08-0.21-0.13-0.32c-0.02-0.03-0.02-0.07-0.04-0.1
		c0,0,0,0,0-0.01c-0.05-0.1-0.12-0.2-0.19-0.29c-0.02-0.03-0.04-0.07-0.07-0.1c-0.02-0.02-0.04-0.04-0.06-0.06
		c-0.09-0.1-0.18-0.19-0.28-0.28c0,0,0,0,0,0c-2.6-2.11-3.84-5.22-3.69-9.25c0.37-9.84,9.02-22.64,21.21-31.57
		c12.19,8.94,20.84,21.73,21.21,31.57c0.15,4.03-1.09,7.14-3.69,9.25c0,0,0,0-0.01,0.01c-0.08,0.07-0.15,0.15-0.22,0.22
		c-0.04,0.04-0.08,0.07-0.11,0.11c-0.01,0.02-0.02,0.04-0.03,0.05c-0.08,0.11-0.16,0.22-0.22,0.34c0,0,0,0,0,0.01
		c-0.02,0.03-0.02,0.06-0.04,0.09c-0.05,0.11-0.1,0.22-0.13,0.33c-0.02,0.07-0.03,0.13-0.04,0.2c-0.02,0.08-0.04,0.16-0.04,0.25
		c-0.01,0.07,0,0.14,0,0.22c0,0.08,0,0.16,0,0.24c0.01,0.06,0.02,0.13,0.04,0.19c0.02,0.09,0.03,0.17,0.06,0.26
		c0.02,0.06,0.05,0.12,0.07,0.17c0.03,0.08,0.06,0.17,0.11,0.25c0.04,0.07,0.09,0.14,0.14,0.21c0.04,0.06,0.07,0.11,0.11,0.17
		c0,0,0.01,0.01,0.01,0.01c0.1,0.13,0.22,0.24,0.35,0.35c0.06,0.05,0.13,0.09,0.2,0.13c0.06,0.04,0.12,0.08,0.18,0.12
		c2.32,1.21,3.77,3.58,3.77,6.19c0,3.84-3.13,6.97-6.97,6.97c-3.84,0-6.97-3.13-6.97-6.97c0-1.3-1.05-2.35-2.35-2.35
		c-1.3,0-2.35,1.05-2.35,2.35c0,2.71,0.94,5.21,2.5,7.19v2.13c0,11.55,9.39,20.94,20.94,20.94c11.55,0,20.94-9.39,20.94-20.94V53.86
		c0-17.67,14.38-32.05,32.05-32.05c1.3,0,2.35-1.05,2.35-2.35c0-1.3-1.05-2.35-2.35-2.35c-20.27,0-36.75,16.49-36.75,36.75v11.66
		c0,8.95-7.28,16.24-16.24,16.24c-8.45,0-15.41-6.49-16.16-14.75c1.05,0.43,2.17,0.71,3.34,0.81
		C41.13,73.91,46.45,78.56,52.86,78.56z"/>
	<path class="st0" d="M105.85,25.01C89.94,25.01,77,37.95,77,53.86v11.66c0,13.31-10.83,24.14-24.14,24.14
		c-13.31,0-24.14-10.83-24.14-24.14c0-1.3-1.05-2.35-2.35-2.35c-1.3,0-2.35,1.05-2.35,2.35c0,15.91,12.94,28.85,28.85,28.85
		c15.91,0,28.85-12.94,28.85-28.85V53.86c0-13.31,10.83-24.14,24.14-24.14c1.3,0,2.35-1.05,2.35-2.35
		C108.2,26.07,107.15,25.01,105.85,25.01z"/>
	<path class="st0" d="M7.68,56.2c0,2.19,1.78,3.97,3.97,3.97c2.19,0,3.97-1.78,3.97-3.97c0-2.19-1.78-3.97-3.97-3.97
		C9.45,52.23,7.68,54,7.68,56.2z"/>
	<path class="st0" d="M45.06,56.2c0-2.19-1.78-3.97-3.97-3.97S37.12,54,37.12,56.2c0,2.19,1.78,3.97,3.97,3.97
		S45.06,58.39,45.06,56.2z"/>
	<polygon class="st0" points="117.9,96.15 115.89,96.15 115.89,110.18 125.49,110.18 125.49,108.43 117.9,108.43 	"/>
	<path class="st0" d="M142.09,96.92c-1.14-0.62-2.41-0.93-3.81-0.93c-1.42,0-2.69,0.31-3.83,0.93c-1.14,0.62-2.03,1.48-2.67,2.58
		c-0.65,1.1-0.97,2.32-0.97,3.67s0.32,2.57,0.97,3.67c0.65,1.1,1.54,1.95,2.67,2.58s2.41,0.93,3.83,0.93c1.4,0,2.67-0.31,3.81-0.93
		s2.02-1.48,2.67-2.57c0.64-1.09,0.96-2.32,0.96-3.68c0-1.36-0.32-2.59-0.96-3.68C144.11,98.4,143.22,97.54,142.09,96.92z
		 M143,105.92c-0.47,0.82-1.12,1.47-1.94,1.93c-0.82,0.47-1.75,0.7-2.78,0.7c-1.03,0-1.96-0.23-2.8-0.7s-1.49-1.11-1.96-1.93
		c-0.47-0.82-0.71-1.74-0.71-2.76s0.24-1.93,0.71-2.76c0.47-0.82,1.13-1.47,1.96-1.93s1.77-0.7,2.8-0.7c1.03,0,1.95,0.23,2.78,0.7
		c0.82,0.47,1.47,1.11,1.94,1.93c0.47,0.82,0.71,1.74,0.71,2.76S143.47,105.1,143,105.92z"/>
	<polygon class="st0" points="166.8,107.61 162.93,96.15 161.09,96.15 157.14,107.55 153.35,96.15 151.29,96.15 155.98,110.18 
		158.12,110.18 161.95,98.97 165.78,110.18 167.88,110.18 172.57,96.15 170.67,96.15 	"/>
	<path class="st0" d="M193.08,98.47c0.84-0.47,1.78-0.7,2.83-0.7c1.58,0,2.89,0.55,3.95,1.66l1.3-1.26
		c-0.64-0.72-1.42-1.27-2.33-1.63c-0.91-0.37-1.91-0.55-3.01-0.55c-1.4,0-2.67,0.31-3.81,0.93c-1.14,0.62-2.02,1.48-2.67,2.57
		c-0.64,1.09-0.96,2.31-0.96,3.68c0,1.36,0.32,2.59,0.96,3.68c0.64,1.09,1.53,1.94,2.66,2.57c1.13,0.62,2.39,0.93,3.8,0.93
		c1.1,0,2.1-0.19,3.02-0.56c0.92-0.37,1.69-0.92,2.33-1.64l-1.3-1.26c-1.07,1.12-2.39,1.68-3.95,1.68c-1.04,0-1.98-0.23-2.83-0.7
		s-1.5-1.11-1.97-1.93c-0.47-0.82-0.71-1.74-0.71-2.76s0.24-1.93,0.71-2.76C191.58,99.59,192.23,98.94,193.08,98.47z"/>
	<path class="st0" d="M212.32,96.15l-6.35,14.03h2.06l1.54-3.51h7.46l1.54,3.51h2.1l-6.37-14.03H212.32z M210.27,105.07l3.03-6.87
		l3.03,6.87H210.27z"/>
	<path class="st0" d="M237.69,103.81c0.53-0.76,0.8-1.68,0.8-2.77c0-1.52-0.52-2.72-1.56-3.59c-1.04-0.87-2.47-1.3-4.29-1.3h-5.47
		v14.03h2v-4.27h3.47c0.21,0,0.51-0.01,0.88-0.04l3.03,4.31h2.18l-3.33-4.71C236.4,105.12,237.16,104.57,237.69,103.81z
		 M232.58,104.21h-3.41v-6.31h3.41c1.27,0,2.24,0.27,2.91,0.81s1,1.32,1,2.33s-0.33,1.8-1,2.34
		C234.82,103.93,233.85,104.21,232.58,104.21z"/>
	<path class="st0" d="M255.59,102.9c0.57-0.28,1.03-0.69,1.37-1.22c0.34-0.53,0.51-1.17,0.51-1.9c0-1.14-0.44-2.02-1.31-2.67
		c-0.88-0.64-2.12-0.96-3.72-0.96h-6.29v14.03h6.69c1.75,0,3.08-0.33,4-0.98c0.92-0.65,1.37-1.59,1.37-2.81
		c0-0.91-0.23-1.66-0.7-2.25S256.4,103.13,255.59,102.9z M248.15,97.77h4.11c1.03,0,1.82,0.19,2.38,0.57
		c0.55,0.38,0.83,0.94,0.83,1.67c0,0.74-0.28,1.29-0.83,1.67c-0.55,0.38-1.35,0.57-2.38,0.57h-4.11V97.77z M255.33,107.99
		c-0.58,0.37-1.43,0.56-2.57,0.56h-4.61v-4.67h4.61c2.29,0,3.43,0.78,3.43,2.34C256.19,107.03,255.9,107.62,255.33,107.99z"/>
	<path class="st0" d="M285.39,97.03c-1.15-0.59-2.47-0.88-3.95-0.88h-5.91v14.03h5.91c1.48,0,2.8-0.29,3.95-0.88
		c1.15-0.59,2.04-1.41,2.68-2.48c0.63-1.06,0.95-2.28,0.95-3.66s-0.32-2.6-0.95-3.66C287.43,98.44,286.54,97.62,285.39,97.03z
		 M286.31,105.92c-0.47,0.79-1.13,1.41-1.99,1.85c-0.86,0.44-1.86,0.66-3,0.66h-3.79V97.89h3.79c1.14,0,2.13,0.22,3,0.66
		c0.86,0.44,1.53,1.06,1.99,1.85s0.7,1.71,0.7,2.76C287.02,104.21,286.78,105.13,286.31,105.92z"/>
	<rect x="296.5" y="96.15" class="st0" width="2" height="14.03"/>
	<polygon class="st0" points="309.12,103.91 316.16,103.91 316.16,102.2 309.12,102.2 309.12,97.89 317.02,97.89 317.02,96.15 
		307.12,96.15 307.12,110.18 317.3,110.18 317.3,108.43 309.12,108.43 	"/>
	<polygon class="st0" points="322.93,97.89 327.74,97.89 327.74,110.18 329.73,110.18 329.73,97.89 334.54,97.89 334.54,96.15 
		322.93,96.15 	"/>
	<path class="st0" d="M129.21,37.18h1.67c11.14,0,15.57-4.25,17.18-8.61c1.63,4.32,6.02,8.61,16.71,8.61h1.63
		c11.88,0,15.88-4.32,17.12-8.07v7.6h25.12h3.3h7.74l1.85-4.02h13.58l1.85,4.02H246h2.65h8.14V22.22l14.52,14.48h10.54V9.77h-10.79
		v13.8l-13.83-13.8H246v21.42L235.72,9.77h-14.3l-9.48,19.99h-17.34v-3.15h16.55v-7.06h-16.55v-2.9h17.09V9.77h-28.17v7.39
		c-1.24-3.82-5.23-7.86-17.12-7.86h-1.63c-10.7,0-15.08,4.21-16.71,8.48c-1.61-4.34-6.05-8.48-17.18-8.48h-1.67
		c-15.32,0-17.92,7.93-17.96,13.32v1.09C111.25,29.03,113.9,37.18,129.21,37.18z M228.33,17.73l3.69,8.18h-7.42L228.33,17.73z
		 M158.75,22.91c0-2.06,0.8-5.65,6.84-5.65c6.48,0,6.88,3.22,6.95,3.77h10.96v4.38h-10.96c-0.07,0.47-0.51,3.66-6.92,3.66
		c-5.97,0-6.88-3.66-6.88-5.76V22.91z M122.81,22.91c0-2.14,0.8-5.65,7.24-5.65c6.37,0,7.24,3.51,7.24,5.65v0.36
		c0,2.21-0.87,5.79-7.21,5.79c-6.34,0-7.28-3.58-7.28-5.79V22.91z"/>
	<path class="st0" d="M294.14,27.37c1.26,4.69,5.42,9.81,17.09,9.81h1.63c15.68,0,17.63-7.53,17.63-11.33v-0.43h-11.48
		c-0.07,0.47-0.51,3.66-6.92,3.66c-5.97,0-6.88-3.66-6.88-5.76v-0.4c0-2.06,0.8-5.65,6.84-5.65c6.48,0,6.88,3.22,6.95,3.77h11.48
		v-0.4c0-4.27-1.92-11.33-17.63-11.33h-1.63c-11.68,0-15.84,5.02-17.09,9.66V9.77h-11.04v26.94h11.04V27.37z"/>
	<path class="st0" d="M303.42,40.38h-2.89c-14.82,0-22.77,4.28-26.92,9.69v-8.88h-55.66h-1.58h-43.98h-3.27h-18.57l-17.7,17.38
		V41.19h-19.08v46.69h19.08V67.81l17.51,20.08h18.75h5.09h44.18V75.84h-30.06v-5.46h28.68V58.14h-28.68v-5.02h28.04v0.03h19.08
		v34.74h19.08V53.15h17.16c-1.73,3.48-2.27,7.15-2.29,10.33v1.88c0,9.23,4.58,23.35,31.13,23.35h2.89
		c26.74,0,31.19-14.12,31.19-23.35v-1.88C334.62,54.12,330.1,40.38,303.42,40.38z M150.75,62.16l18.38-17.79v37.94L150.75,62.16z
		 M314.53,64.6c0,3.83-1.51,10.04-12.49,10.04c-10.98,0-12.61-6.21-12.61-10.04v-0.63c0-3.7,1.38-9.79,12.55-9.79
		c11.05,0,12.55,6.09,12.55,9.79V64.6z"/>
</g>
</svg>
